<mxfile host="65bd71144e">
    <diagram id="sED9ADRcN6IbE8D5TVqb" name="Page-1">
        <mxGraphModel dx="809" dy="1150" grid="1" gridSize="10" guides="1" tooltips="1" connect="1" arrows="1" fold="1" page="1" pageScale="1" pageWidth="1169" pageHeight="827" math="0" shadow="0">
            <root>
                <mxCell id="0"/>
                <mxCell id="1" parent="0"/>
                <mxCell id="106" value="&lt;font style=&quot;font-size: 12px&quot;&gt;HAS_INPUT&lt;/font&gt;" style="edgeStyle=none;html=1;fontSize=14;" parent="1" source="99" target="103" edge="1">
                    <mxGeometry relative="1" as="geometry"/>
                </mxCell>
                <mxCell id="107" value="HAS_OUTPUT" style="edgeStyle=none;html=1;fontSize=12;" parent="1" source="99" target="104" edge="1">
                    <mxGeometry relative="1" as="geometry"/>
                </mxCell>
                <mxCell id="99" value="&lt;font style=&quot;font-size: 14px&quot;&gt;&lt;b&gt;AggregationFunction&lt;/b&gt;&lt;/font&gt;&lt;br&gt;- name: &quot;avg&quot;&lt;br&gt;- uuid: &quot;7f04a168-1714-4fc4-a7e6-e6ba195e1ce1&quot;" style="ellipse;whiteSpace=wrap;html=1;aspect=fixed;fillColor=#76608a;fontColor=#ffffff;strokeColor=#432D57;" parent="1" vertex="1">
                    <mxGeometry x="280" y="440" width="160" height="160" as="geometry"/>
                </mxCell>
                <mxCell id="103" value="&lt;font style=&quot;font-size: 14px&quot;&gt;&lt;b&gt;Input&lt;/b&gt;&lt;/font&gt;&lt;br&gt;- name: &quot;value&quot;" style="ellipse;whiteSpace=wrap;html=1;aspect=fixed;fillColor=#76608a;fontColor=#ffffff;strokeColor=#432D57;" parent="1" vertex="1">
                    <mxGeometry x="40" y="460" width="120" height="120" as="geometry"/>
                </mxCell>
                <mxCell id="104" value="&lt;font style=&quot;font-size: 14px&quot;&gt;&lt;b&gt;Output&lt;/b&gt;&lt;/font&gt;&lt;br&gt;- name: &quot;aggregatedValue&quot;" style="ellipse;whiteSpace=wrap;html=1;aspect=fixed;fillColor=#76608a;fontColor=#ffffff;strokeColor=#432D57;" parent="1" vertex="1">
                    <mxGeometry x="560" y="460" width="120" height="120" as="geometry"/>
                </mxCell>
                <mxCell id="108" value="&lt;font style=&quot;font-size: 12px&quot;&gt;HAS_INPUT&lt;/font&gt;" style="edgeStyle=none;html=1;fontSize=14;" parent="1" source="110" target="111" edge="1">
                    <mxGeometry relative="1" as="geometry"/>
                </mxCell>
                <mxCell id="109" value="HAS_OUTPUT" style="edgeStyle=none;html=1;fontSize=12;" parent="1" source="110" target="112" edge="1">
                    <mxGeometry relative="1" as="geometry"/>
                </mxCell>
                <mxCell id="110" value="&lt;font style=&quot;font-size: 14px&quot;&gt;&lt;b&gt;AggregationFunction&lt;/b&gt;&lt;/font&gt;&lt;br&gt;- name: &quot;collect&quot;&lt;br&gt;- uuid: &quot;8b86da08-dd42-4223-a47a-104770764889&quot;" style="ellipse;whiteSpace=wrap;html=1;aspect=fixed;fillColor=#76608a;fontColor=#ffffff;strokeColor=#432D57;" parent="1" vertex="1">
                    <mxGeometry x="280" y="40" width="160" height="160" as="geometry"/>
                </mxCell>
                <mxCell id="111" value="&lt;font style=&quot;font-size: 14px&quot;&gt;&lt;b&gt;Input&lt;/b&gt;&lt;/font&gt;&lt;br&gt;- name: &quot;value&quot;" style="ellipse;whiteSpace=wrap;html=1;aspect=fixed;fillColor=#76608a;fontColor=#ffffff;strokeColor=#432D57;" parent="1" vertex="1">
                    <mxGeometry x="40" y="60" width="120" height="120" as="geometry"/>
                </mxCell>
                <mxCell id="112" value="&lt;font style=&quot;font-size: 14px&quot;&gt;&lt;b&gt;Output&lt;/b&gt;&lt;/font&gt;&lt;br&gt;- name: &quot;aggregatedValue&quot;" style="ellipse;whiteSpace=wrap;html=1;aspect=fixed;fillColor=#76608a;fontColor=#ffffff;strokeColor=#432D57;" parent="1" vertex="1">
                    <mxGeometry x="560" y="60" width="120" height="120" as="geometry"/>
                </mxCell>
                <mxCell id="113" value="&lt;font style=&quot;font-size: 12px&quot;&gt;HAS_INPUT&lt;/font&gt;" style="edgeStyle=none;html=1;fontSize=14;" parent="1" source="115" target="116" edge="1">
                    <mxGeometry relative="1" as="geometry"/>
                </mxCell>
                <mxCell id="114" value="HAS_OUTPUT" style="edgeStyle=none;html=1;fontSize=12;" parent="1" source="115" target="117" edge="1">
                    <mxGeometry relative="1" as="geometry"/>
                </mxCell>
                <mxCell id="115" value="&lt;font style=&quot;font-size: 14px&quot;&gt;&lt;b&gt;AggregationFunction&lt;/b&gt;&lt;/font&gt;&lt;br&gt;- name: &quot;count&quot;&lt;br&gt;- uuid: &quot;36f1848e-970d-4349-940a-199bfbff5fff&quot;" style="ellipse;whiteSpace=wrap;html=1;aspect=fixed;fillColor=#76608a;fontColor=#ffffff;strokeColor=#432D57;" parent="1" vertex="1">
                    <mxGeometry x="280" y="240" width="160" height="160" as="geometry"/>
                </mxCell>
                <mxCell id="116" value="&lt;font style=&quot;font-size: 14px&quot;&gt;&lt;b&gt;Input&lt;/b&gt;&lt;/font&gt;&lt;br&gt;- name: &quot;value&quot;" style="ellipse;whiteSpace=wrap;html=1;aspect=fixed;fillColor=#76608a;fontColor=#ffffff;strokeColor=#432D57;" parent="1" vertex="1">
                    <mxGeometry x="40" y="260" width="120" height="120" as="geometry"/>
                </mxCell>
                <mxCell id="117" value="&lt;font style=&quot;font-size: 14px&quot;&gt;&lt;b&gt;Output&lt;/b&gt;&lt;/font&gt;&lt;br&gt;- name: &quot;aggregatedValue&quot;" style="ellipse;whiteSpace=wrap;html=1;aspect=fixed;fillColor=#76608a;fontColor=#ffffff;strokeColor=#432D57;" parent="1" vertex="1">
                    <mxGeometry x="560" y="260" width="120" height="120" as="geometry"/>
                </mxCell>
                <mxCell id="118" value="&lt;font style=&quot;font-size: 12px&quot;&gt;HAS_INPUT&lt;/font&gt;" style="edgeStyle=none;html=1;fontSize=14;" parent="1" source="120" target="121" edge="1">
                    <mxGeometry relative="1" as="geometry"/>
                </mxCell>
                <mxCell id="119" value="HAS_OUTPUT" style="edgeStyle=none;html=1;fontSize=12;" parent="1" source="120" target="122" edge="1">
                    <mxGeometry relative="1" as="geometry"/>
                </mxCell>
                <mxCell id="120" value="&lt;font style=&quot;font-size: 14px&quot;&gt;&lt;b&gt;AggregationFunction&lt;/b&gt;&lt;/font&gt;&lt;br&gt;- name: &quot;max&quot;&lt;br&gt;- uuid: &quot;9bcf6b4f-b999-4a45-b5a3-fcea217e28d6&quot;" style="ellipse;whiteSpace=wrap;html=1;aspect=fixed;fillColor=#76608a;fontColor=#ffffff;strokeColor=#432D57;" parent="1" vertex="1">
                    <mxGeometry x="280" y="640" width="160" height="160" as="geometry"/>
                </mxCell>
                <mxCell id="121" value="&lt;font style=&quot;font-size: 14px&quot;&gt;&lt;b&gt;Input&lt;/b&gt;&lt;/font&gt;&lt;br&gt;- name: &quot;value&quot;" style="ellipse;whiteSpace=wrap;html=1;aspect=fixed;fillColor=#76608a;fontColor=#ffffff;strokeColor=#432D57;" parent="1" vertex="1">
                    <mxGeometry x="40" y="660" width="120" height="120" as="geometry"/>
                </mxCell>
                <mxCell id="122" value="&lt;font style=&quot;font-size: 14px&quot;&gt;&lt;b&gt;Output&lt;/b&gt;&lt;/font&gt;&lt;br&gt;- name: &quot;aggregatedValue&quot;" style="ellipse;whiteSpace=wrap;html=1;aspect=fixed;fillColor=#76608a;fontColor=#ffffff;strokeColor=#432D57;" parent="1" vertex="1">
                    <mxGeometry x="560" y="660" width="120" height="120" as="geometry"/>
                </mxCell>
                <mxCell id="123" value="&lt;font style=&quot;font-size: 12px&quot;&gt;HAS_INPUT&lt;/font&gt;" style="edgeStyle=none;html=1;fontSize=14;" parent="1" source="125" target="126" edge="1">
                    <mxGeometry relative="1" as="geometry"/>
                </mxCell>
                <mxCell id="124" value="HAS_OUTPUT" style="edgeStyle=none;html=1;fontSize=12;" parent="1" source="125" target="127" edge="1">
                    <mxGeometry relative="1" as="geometry"/>
                </mxCell>
                <mxCell id="125" value="&lt;font style=&quot;font-size: 14px&quot;&gt;&lt;b&gt;AggregationFunction&lt;/b&gt;&lt;/font&gt;&lt;br&gt;- name: &quot;min&quot;&lt;br&gt;- uuid: &quot;6e885fd3-4596-4e72-9114-270b2ed557c8&quot;" style="ellipse;whiteSpace=wrap;html=1;aspect=fixed;fillColor=#76608a;fontColor=#ffffff;strokeColor=#432D57;" parent="1" vertex="1">
                    <mxGeometry x="280" y="840" width="160" height="160" as="geometry"/>
                </mxCell>
                <mxCell id="126" value="&lt;font style=&quot;font-size: 14px&quot;&gt;&lt;b&gt;Input&lt;/b&gt;&lt;/font&gt;&lt;br&gt;- name: &quot;value&quot;" style="ellipse;whiteSpace=wrap;html=1;aspect=fixed;fillColor=#76608a;fontColor=#ffffff;strokeColor=#432D57;" parent="1" vertex="1">
                    <mxGeometry x="40" y="860" width="120" height="120" as="geometry"/>
                </mxCell>
                <mxCell id="127" value="&lt;font style=&quot;font-size: 14px&quot;&gt;&lt;b&gt;Output&lt;/b&gt;&lt;/font&gt;&lt;br&gt;- name: &quot;aggregatedValue&quot;" style="ellipse;whiteSpace=wrap;html=1;aspect=fixed;fillColor=#76608a;fontColor=#ffffff;strokeColor=#432D57;" parent="1" vertex="1">
                    <mxGeometry x="560" y="860" width="120" height="120" as="geometry"/>
                </mxCell>
                <mxCell id="128" value="&lt;font style=&quot;font-size: 12px&quot;&gt;HAS_INPUT&lt;/font&gt;" style="edgeStyle=none;html=1;fontSize=14;" parent="1" source="130" target="131" edge="1">
                    <mxGeometry relative="1" as="geometry"/>
                </mxCell>
                <mxCell id="129" value="HAS_OUTPUT" style="edgeStyle=none;html=1;fontSize=12;" parent="1" source="130" target="132" edge="1">
                    <mxGeometry relative="1" as="geometry"/>
                </mxCell>
                <mxCell id="130" value="&lt;font style=&quot;font-size: 14px&quot;&gt;&lt;b&gt;AggregationFunction&lt;/b&gt;&lt;/font&gt;&lt;br&gt;- name: &quot;sum&quot;&lt;br&gt;- uuid: &quot;1f683e18-0cca-46d4-a40c-702811ba8f0b&quot;" style="ellipse;whiteSpace=wrap;html=1;aspect=fixed;fillColor=#76608a;fontColor=#ffffff;strokeColor=#432D57;" parent="1" vertex="1">
                    <mxGeometry x="280" y="1040" width="160" height="160" as="geometry"/>
                </mxCell>
                <mxCell id="131" value="&lt;font style=&quot;font-size: 14px&quot;&gt;&lt;b&gt;Input&lt;/b&gt;&lt;/font&gt;&lt;br&gt;- name: &quot;value&quot;" style="ellipse;whiteSpace=wrap;html=1;aspect=fixed;fillColor=#76608a;fontColor=#ffffff;strokeColor=#432D57;" parent="1" vertex="1">
                    <mxGeometry x="40" y="1060" width="120" height="120" as="geometry"/>
                </mxCell>
                <mxCell id="132" value="&lt;font style=&quot;font-size: 14px&quot;&gt;&lt;b&gt;Output&lt;/b&gt;&lt;/font&gt;&lt;br&gt;- name: &quot;aggregatedValue&quot;" style="ellipse;whiteSpace=wrap;html=1;aspect=fixed;fillColor=#76608a;fontColor=#ffffff;strokeColor=#432D57;" parent="1" vertex="1">
                    <mxGeometry x="560" y="1060" width="120" height="120" as="geometry"/>
                </mxCell>
                <mxCell id="133" value="&lt;font style=&quot;font-size: 12px&quot;&gt;HAS_INPUT&lt;/font&gt;" style="edgeStyle=none;html=1;fontSize=14;" parent="1" source="135" target="136" edge="1">
                    <mxGeometry relative="1" as="geometry"/>
                </mxCell>
                <mxCell id="134" value="HAS_OUTPUT" style="edgeStyle=none;html=1;fontSize=12;" parent="1" source="135" target="137" edge="1">
                    <mxGeometry relative="1" as="geometry"/>
                </mxCell>
                <mxCell id="135" value="&lt;font style=&quot;font-size: 14px&quot;&gt;&lt;b&gt;AggregationFunction&lt;/b&gt;&lt;/font&gt;&lt;br&gt;- name: &quot;stDev&quot;&lt;br&gt;- uuid: &quot;e289c8aa-fbff-41ad-a9dc-18335443e8b6&quot;" style="ellipse;whiteSpace=wrap;html=1;aspect=fixed;fillColor=#76608a;fontColor=#ffffff;strokeColor=#432D57;" parent="1" vertex="1">
                    <mxGeometry x="280" y="1240" width="160" height="160" as="geometry"/>
                </mxCell>
                <mxCell id="136" value="&lt;font style=&quot;font-size: 14px&quot;&gt;&lt;b&gt;Input&lt;/b&gt;&lt;/font&gt;&lt;br&gt;- name: &quot;value&quot;" style="ellipse;whiteSpace=wrap;html=1;aspect=fixed;fillColor=#76608a;fontColor=#ffffff;strokeColor=#432D57;" parent="1" vertex="1">
                    <mxGeometry x="40" y="1260" width="120" height="120" as="geometry"/>
                </mxCell>
                <mxCell id="137" value="&lt;font style=&quot;font-size: 14px&quot;&gt;&lt;b&gt;Output&lt;/b&gt;&lt;/font&gt;&lt;br&gt;- name: &quot;aggregatedValue&quot;" style="ellipse;whiteSpace=wrap;html=1;aspect=fixed;fillColor=#76608a;fontColor=#ffffff;strokeColor=#432D57;" parent="1" vertex="1">
                    <mxGeometry x="560" y="1260" width="120" height="120" as="geometry"/>
                </mxCell>
                <mxCell id="138" value="&lt;font style=&quot;font-size: 12px&quot;&gt;HAS_INPUT&lt;/font&gt;" style="edgeStyle=none;html=1;fontSize=14;" parent="1" source="140" target="141" edge="1">
                    <mxGeometry relative="1" as="geometry"/>
                </mxCell>
                <mxCell id="139" value="HAS_OUTPUT" style="edgeStyle=none;html=1;fontSize=12;" parent="1" source="140" target="142" edge="1">
                    <mxGeometry relative="1" as="geometry"/>
                </mxCell>
                <mxCell id="140" value="&lt;font style=&quot;font-size: 14px&quot;&gt;&lt;b&gt;AggregationFunction&lt;/b&gt;&lt;/font&gt;&lt;br&gt;- name: &quot;stDevP&quot;&lt;br&gt;- uuid: &quot;3104eefe-a090-40cd-a3ac-30af5b126eac&quot;" style="ellipse;whiteSpace=wrap;html=1;aspect=fixed;fillColor=#76608a;fontColor=#ffffff;strokeColor=#432D57;" parent="1" vertex="1">
                    <mxGeometry x="280" y="1440" width="160" height="160" as="geometry"/>
                </mxCell>
                <mxCell id="141" value="&lt;font style=&quot;font-size: 14px&quot;&gt;&lt;b&gt;Input&lt;/b&gt;&lt;/font&gt;&lt;br&gt;- name: &quot;value&quot;" style="ellipse;whiteSpace=wrap;html=1;aspect=fixed;fillColor=#76608a;fontColor=#ffffff;strokeColor=#432D57;" parent="1" vertex="1">
                    <mxGeometry x="40" y="1460" width="120" height="120" as="geometry"/>
                </mxCell>
                <mxCell id="142" value="&lt;font style=&quot;font-size: 14px&quot;&gt;&lt;b&gt;Output&lt;/b&gt;&lt;/font&gt;&lt;br&gt;- name: &quot;aggregatedValue&quot;" style="ellipse;whiteSpace=wrap;html=1;aspect=fixed;fillColor=#76608a;fontColor=#ffffff;strokeColor=#432D57;" parent="1" vertex="1">
                    <mxGeometry x="560" y="1460" width="120" height="120" as="geometry"/>
                </mxCell>
            </root>
        </mxGraphModel>
    </diagram>
</mxfile>